<?xml version="1.0" encoding="UTF-8"?>
<svg xmlns="http://www.w3.org/2000/svg" xmlns:xlink="http://www.w3.org/1999/xlink" width="249.221pt" height="222.733pt" viewBox="0 0 249.221 222.733" version="1.1">
<defs>
<clipPath id="clip1">
  <path d="M 0 0 L 249 0 L 249 222.734375 L 0 222.734375 Z M 0 0 "/>
</clipPath>
</defs>
<g id="surface1">
<g clip-path="url(#clip1)" clip-rule="nonzero">
<path style="fill:none;stroke-width:0.4;stroke-linecap:butt;stroke-linejoin:round;stroke:rgb(100%,0%,0%);stroke-opacity:1;stroke-miterlimit:10;" d="M 161.548219 641.779781 L 161.548219 419.44775 L 409.372437 419.44775 L 409.372437 641.779781 Z M 161.548219 641.779781 " transform="matrix(1,0,0,-1,-160.849,641.979)"/>
</g>
<path style="fill:none;stroke-width:0.4;stroke-linecap:butt;stroke-linejoin:round;stroke:rgb(0%,0%,0%);stroke-opacity:1;stroke-miterlimit:10;" d="M 161.548219 441.342281 C 203.095094 455.643063 233.345094 455.643063 250.020875 446.334469 " transform="matrix(1,0,0,-1,-160.849,641.979)"/>
<path style="fill:none;stroke-width:0.4;stroke-linecap:butt;stroke-linejoin:round;stroke:rgb(0%,0%,0%);stroke-opacity:1;stroke-miterlimit:10;" d="M 250.020875 446.334469 C 264.497437 451.764156 276.388062 454.607906 285.696656 454.865719 " transform="matrix(1,0,0,-1,-160.849,641.979)"/>
<path style="fill:none;stroke-width:0.4;stroke-linecap:butt;stroke-linejoin:round;stroke:rgb(0%,0%,0%);stroke-opacity:1;stroke-miterlimit:10;" d="M 285.696656 454.865719 C 268.243531 456.803219 261.071656 469.795406 257.872437 481.979 C 254.673219 494.162594 255.446656 505.537594 259.0365 515.975094 C 262.622437 526.412594 269.020875 535.912594 289.962281 540.178219 " transform="matrix(1,0,0,-1,-160.849,641.979)"/>
<path style="fill:none;stroke-width:0.4;stroke-linecap:butt;stroke-linejoin:round;stroke:rgb(0%,0%,0%);stroke-opacity:1;stroke-miterlimit:10;" d="M 289.962281 540.178219 C 277.552125 544.834469 268.634156 565.771969 272.509156 573.529781 " transform="matrix(1,0,0,-1,-160.849,641.979)"/>
<path style="fill:none;stroke-width:0.4;stroke-linecap:butt;stroke-linejoin:round;stroke:rgb(0%,0%,0%);stroke-opacity:1;stroke-miterlimit:10;" d="M 272.509156 573.529781 C 259.583375 576.115719 248.727906 579.217281 239.938844 582.834469 " transform="matrix(1,0,0,-1,-160.849,641.979)"/>
<path style="fill:none;stroke-width:0.4;stroke-linecap:butt;stroke-linejoin:round;stroke:rgb(0%,0%,0%);stroke-opacity:1;stroke-miterlimit:10;" d="M 239.938844 582.834469 C 254.673219 584.389156 266.306031 583.869625 274.837281 581.283688 " transform="matrix(1,0,0,-1,-160.849,641.979)"/>
<path style="fill:none;stroke-width:0.4;stroke-linecap:butt;stroke-linejoin:round;stroke:rgb(0%,0%,0%);stroke-opacity:1;stroke-miterlimit:10;" d="M 274.837281 581.283688 C 282.204469 593.307125 294.227906 596.408688 307.798219 594.857906 " transform="matrix(1,0,0,-1,-160.849,641.979)"/>
<path style="fill:none;stroke-width:0.4;stroke-linecap:butt;stroke-linejoin:round;stroke:rgb(0%,0%,0%);stroke-opacity:1;stroke-miterlimit:10;" d="M 307.798219 594.857906 C 301.981812 602.611813 301.595094 605.326656 302.501344 607.139156 C 303.403687 608.94775 305.602906 609.850094 308.251344 608.268063 C 310.903687 606.686031 314.00525 602.611813 317.106812 597.57275 " transform="matrix(1,0,0,-1,-160.849,641.979)"/>
<path style="fill:none;stroke-width:0.4;stroke-linecap:butt;stroke-linejoin:round;stroke:rgb(0%,0%,0%);stroke-opacity:1;stroke-miterlimit:10;" d="M 317.106812 597.57275 C 325.638062 600.4165 333.00525 606.490719 339.208375 615.799313 " transform="matrix(1,0,0,-1,-160.849,641.979)"/>
<path style="fill:none;stroke-width:0.4;stroke-linecap:butt;stroke-linejoin:round;stroke:rgb(0%,0%,0%);stroke-opacity:1;stroke-miterlimit:10;" d="M 339.208375 615.799313 C 346.450562 607.006344 351.231812 598.607906 353.559937 590.592281 " transform="matrix(1,0,0,-1,-160.849,641.979)"/>
<path style="fill:none;stroke-width:0.4;stroke-linecap:butt;stroke-linejoin:round;stroke:rgb(0%,0%,0%);stroke-opacity:1;stroke-miterlimit:10;" d="M 353.559937 590.592281 C 343.216187 588.264156 335.204469 584.514156 329.516969 579.346188 " transform="matrix(1,0,0,-1,-160.849,641.979)"/>
<path style="fill:none;stroke-width:0.4;stroke-linecap:butt;stroke-linejoin:round;stroke:rgb(0%,0%,0%);stroke-opacity:1;stroke-miterlimit:10;" d="M 329.516969 579.346188 C 336.497437 567.32275 336.884156 558.7915 326.415406 562.283688 " transform="matrix(1,0,0,-1,-160.849,641.979)"/>
<path style="fill:none;stroke-width:0.4;stroke-linecap:butt;stroke-linejoin:round;stroke:rgb(0%,0%,0%);stroke-opacity:1;stroke-miterlimit:10;" d="M 326.415406 562.283688 C 328.224 555.045406 324.860719 547.545406 316.329469 539.7915 " transform="matrix(1,0,0,-1,-160.849,641.979)"/>
<path style="fill:none;stroke-width:0.4;stroke-linecap:butt;stroke-linejoin:round;stroke:rgb(0%,0%,0%);stroke-opacity:1;stroke-miterlimit:10;" d="M 316.329469 539.7915 C 333.00525 536.299313 338.434937 526.412594 341.602906 516.428219 C 344.766969 506.443844 345.673219 496.361813 342.149781 483.369625 C 338.626344 470.377438 330.677125 454.479 313.618531 454.088375 " transform="matrix(1,0,0,-1,-160.849,641.979)"/>
<path style="fill:none;stroke-width:0.4;stroke-linecap:butt;stroke-linejoin:round;stroke:rgb(0%,0%,0%);stroke-opacity:1;stroke-miterlimit:10;" d="M 313.618531 454.088375 C 320.856812 452.279781 328.997437 449.049313 338.048219 444.396969 " transform="matrix(1,0,0,-1,-160.849,641.979)"/>
<path style="fill:none;stroke-width:0.4;stroke-linecap:butt;stroke-linejoin:round;stroke:rgb(0%,0%,0%);stroke-opacity:1;stroke-miterlimit:10;" d="M 338.048219 444.396969 C 360.540406 452.5415 390.399781 455.643063 409.368531 450.932125 " transform="matrix(1,0,0,-1,-160.849,641.979)"/>
<path style="fill-rule:evenodd;fill:rgb(0%,0%,100%);fill-opacity:1;stroke-width:0.4;stroke-linecap:butt;stroke-linejoin:round;stroke:rgb(0%,0%,100%);stroke-opacity:1;stroke-miterlimit:10;" d="M 216.302125 605.717281 C 216.302125 613.439938 210.044312 619.69775 202.321656 619.69775 C 194.599 619.69775 188.337281 613.439938 188.337281 605.717281 C 188.337281 597.994625 194.599 591.732906 202.321656 591.732906 C 210.044312 591.732906 216.302125 597.994625 216.302125 605.717281 " transform="matrix(1,0,0,-1,-160.849,641.979)"/>
</g>
</svg>
