<?xml version="1.0"?>
<svg xmlns:xsi="http://www.w3.org/2001/XMLSchema-instance" xmlns:xsd="http://www.w3.org/2001/XMLSchema" id="svg" width="1007" height="904.165934462757" xmlns="http://www.w3.org/2000/svg">
  <g id="layer781322" transform="translate(3.5,3.5)">
    <rect id="rect0" width="1000" height="897.16593446275681" x="0" y="0" style="fill:none; stroke:#000000;stroke-width:2px;stroke-linecap:butt;stroke-linejoin:miter;stroke-opacity:1" he="e385112061 e206138511 e206023747 e206310600 e206218949 e189492062 e237472060 e106002063 e42202062 e20624220 e1060035020 e3502010600 e1117712229 e1222911177 e1153384165 e8416511533 e1222939639 e3963912229 e1310985117 e8511713109 e1500633212 e3321215006 e1596389648 e8964815963 e1638015006 e1500616380 e1894916380 e1638018949 e2059781906 e8190620597 e2244339940 e3994022443 e2374737129 e3712923747 e3321220597 e2059733212 e3502015963 e1596335020 e371294220 e422037129 e3851160130 e6013038511 e3880211533 e1153338802 e3963913109 e1310939639 e3994077344 e7734439940 e5153411177 e1117751534 e5277438802 e3880252774 e544212060 e206054421 e6013052774 e5277460130 e773442061 e206177344 e8012554421 e5442180125 e8190651534 e5153481906 e8416580125 e8012584165 e851172063 e206385117 e8964822443 e2244389648" />
    <path style="fill:none; stroke:#000000;stroke-width:1px;stroke-linecap:butt;stroke-linejoin:miter;stroke-opacity:1" id="pathbez2007" d="M 388.685737662099,644.825196126984 C 401.595171921139,693.988196528364 430.534971084493,746.414044918272 500.961523290807,754.232209619946" />
    <path style="fill:none; stroke:#000000;stroke-width:1px;stroke-linecap:butt;stroke-linejoin:miter;stroke-opacity:1" id="pathbez2010" d="M 393.382931366683,507.644793116432 C 378.897274400149,549.762002960936 375.776303403058,595.662195725605 388.685737662099,644.825196126984" />
    <path style="fill:none; stroke:#000000;stroke-width:1px;stroke-linecap:butt;stroke-linejoin:miter;stroke-opacity:1" id="pathbez2029" d="M 568.771461870902,139.796976284954 C 572.412608151447,132.483209305969 581.286860628978,128.842103377242 591.97375711458,135.225882011043" />
    <path style="fill:none; stroke:#000000;stroke-width:1px;stroke-linecap:butt;stroke-linejoin:miter;stroke-opacity:1" id="pathbez2051" d="M 726.553404763314,505.816331195777 C 739.336699239865,546.120856680391 742.97784552041,586.803680457022 728.760124624168,639.213751286164" />
    <path style="fill:none; stroke:#000000;stroke-width:1px;stroke-linecap:butt;stroke-linejoin:miter;stroke-opacity:1" id="pathbez3932" d="M 500.961523290807,754.232209619946 C 465.653343747331,755.210101222132 421.139006435752,765.408127299978 367.405339735391,784.826287853486" />
    <path style="fill:none; stroke:#000000;stroke-width:1px;stroke-linecap:butt;stroke-linejoin:miter;stroke-opacity:1" id="pathbez3931" d="M 367.405339735391,784.826287853486 C 363.937968304212,786.103309966806 360.470596873033,787.380332080127 357.003225441853,788.657354193448" />
    <path style="fill:none; stroke:#000000;stroke-width:1px;stroke-linecap:butt;stroke-linejoin:miter;stroke-opacity:1" id="pathbez4118" d="M 0,808.801748331281 C 159.266714257601,753.995764108277 277.393034594299,751.255464897127 346.500095245422,783.309550773906" />
    <path style="fill:none; stroke:#000000;stroke-width:1px;stroke-linecap:butt;stroke-linejoin:miter;stroke-opacity:1" id="pathbez4117" d="M 346.500095245422,783.309550773906 C 350.001138644232,785.092151913753 353.502182043043,786.874753053601 357.003225441853,788.657354193448" />
    <path style="fill:none; stroke:#000000;stroke-width:1px;stroke-linecap:butt;stroke-linejoin:miter;stroke-opacity:1" id="pathbez4518" d="M 518.174075401649,409.98076388493 C 514.74200789634,408.358174782379 511.30994039103,406.735585679829 507.877872885721,405.112996577278" />
    <path style="fill:none; stroke:#000000;stroke-width:1px;stroke-linecap:butt;stroke-linejoin:miter;stroke-opacity:1" id="pathbez4751" d="M 508.31243957624,412.146549152166 C 431.624331290684,430.266147274209 407.274054333965,467.212271665708 393.382931366683,507.644793116432" />
    <path style="fill:none; stroke:#000000;stroke-width:1px;stroke-linecap:butt;stroke-linejoin:miter;stroke-opacity:1" id="pathbez4750" d="M 518.174075401649,409.98076388493 C 514.886863459846,410.702692307342 511.599651518043,411.424620729754 508.31243957624,412.146549152166" />
    <path style="fill:none; stroke:#000000;stroke-width:1px;stroke-linecap:butt;stroke-linejoin:miter;stroke-opacity:1" id="pathbez4966" d="M 447.747563547152,275.401156588013 C 444.137443240736,274.660529884967 440.52732293432,273.91990318192 436.917202627904,273.179276478873" />
    <path style="fill:none; stroke:#000000;stroke-width:1px;stroke-linecap:butt;stroke-linejoin:miter;stroke-opacity:1" id="pathbez5175" d="M 507.877872885721,405.112996577278 C 467.768397124788,382.185555557093 439.371580229751,319.042351937047 444.694273853942,285.41969506364" />
    <path style="fill:none; stroke:#000000;stroke-width:1px;stroke-linecap:butt;stroke-linejoin:miter;stroke-opacity:1" id="pathbez5174" d="M 444.694273853942,285.41969506364 C 445.712037085012,282.080182238431 446.729800316082,278.740669413222 447.747563547152,275.401156588013" />
    <path style="fill:none; stroke:#000000;stroke-width:1px;stroke-linecap:butt;stroke-linejoin:miter;stroke-opacity:1" id="pathbez5381" d="M 316.320401665223,237.855041017421 C 319.842700336869,237.509599282803 323.364999008516,237.164157548185 326.887297680162,236.818715813567" />
    <path style="fill:none; stroke:#000000;stroke-width:1px;stroke-linecap:butt;stroke-linejoin:miter;stroke-opacity:1" id="pathbez5602" d="M 436.917202627904,273.179276478873 C 394.239905033845,264.201593525394 357.414491818592,253.766290418916 326.431640411137,241.873343498092" />
    <path style="fill:none; stroke:#000000;stroke-width:1px;stroke-linecap:butt;stroke-linejoin:miter;stroke-opacity:1" id="pathbez5601" d="M 326.431640411137,241.873343498092 C 323.061227495833,240.533909337868 319.690814580528,239.194475177645 316.320401665223,237.855041017421" />
    <path style="fill:none; stroke:#000000;stroke-width:1px;stroke-linecap:butt;stroke-linejoin:miter;stroke-opacity:1" id="pathbez5811" d="M 457.14195095632,244.11272022055 C 458.992364365294,241.330078883042 460.842777774267,238.547437545535 462.693191183241,235.764796208027" />
    <path style="fill:none; stroke:#000000;stroke-width:1px;stroke-linecap:butt;stroke-linejoin:miter;stroke-opacity:1" id="pathbez6057" d="M 326.887297680162,236.818715813567 C 375.916427391347,232.371271561528 415.988087697823,233.892361037831 447.102303032444,241.391561921098" />
    <path style="fill:none; stroke:#000000;stroke-width:1px;stroke-linecap:butt;stroke-linejoin:miter;stroke-opacity:1" id="pathbez6056" d="M 447.102303032444,241.391561921098 C 450.448852340403,242.298614687582 453.795401648361,243.205667454066 457.14195095632,244.11272022055" />
    <path style="fill:none; stroke:#000000;stroke-width:1px;stroke-linecap:butt;stroke-linejoin:miter;stroke-opacity:1" id="pathbez6270" d="M 583.744855213844,180.545084097425 C 566.415140470125,155.895465549212 565.480266730358,146.365166761352 568.771461870902,139.796976284954" />
    <path style="fill:none; stroke:#000000;stroke-width:1px;stroke-linecap:butt;stroke-linejoin:miter;stroke-opacity:1" id="pathbez6269" d="M 590.145335545743,189.33827497835 C 588.011842101777,186.407211351375 585.878348657811,183.4761477244 583.744855213844,180.545084097425" />
    <path style="fill:none; stroke:#000000;stroke-width:1px;stroke-linecap:butt;stroke-linejoin:miter;stroke-opacity:1" id="pathbez6524" d="M 462.693191183241,235.764796208027 C 490.612901056957,197.073911255116 532.316184847677,185.106243364853 579.420624600618,188.351758783029" />
    <path style="fill:none; stroke:#000000;stroke-width:1px;stroke-linecap:butt;stroke-linejoin:miter;stroke-opacity:1" id="pathbez6523" d="M 579.420624600618,188.351758783029 C 582.995528248993,188.680597514803 586.570431897368,189.009436246577 590.145335545743,189.33827497835" />
    <path style="fill:none; stroke:#000000;stroke-width:1px;stroke-linecap:butt;stroke-linejoin:miter;stroke-opacity:1" id="pathbez6712" d="M 627.707188325283,178.383402070638 C 631.102730832137,177.105541914624 634.498273338991,175.82768175861 637.893815845844,174.549821602596" />
    <path style="fill:none; stroke:#000000;stroke-width:1px;stroke-linecap:butt;stroke-linejoin:miter;stroke-opacity:1" id="pathbez6962" d="M 591.97375711458,135.225882011043 C 601.071064353039,140.66547047738 611.478006887329,153.34809634852 622.081394715994,169.517818248028" />
    <path style="fill:none; stroke:#000000;stroke-width:1px;stroke-linecap:butt;stroke-linejoin:miter;stroke-opacity:1" id="pathbez6961" d="M 622.081394715994,169.517818248028 C 623.956659252424,172.473012855565 625.831923788853,175.428207463101 627.707188325283,178.383402070638" />
    <path style="fill:none; stroke:#000000;stroke-width:1px;stroke-linecap:butt;stroke-linejoin:miter;stroke-opacity:1" id="pathbez7214" d="M 716.891000580219,104.851656427998 C 719.165336039703,107.678905994859 721.439671499187,110.506155561719 723.714006958671,113.333405128579" />
    <path style="fill:none; stroke:#000000;stroke-width:1px;stroke-linecap:butt;stroke-linejoin:miter;stroke-opacity:1" id="pathbez7472" d="M 637.893815845844,174.549821602596 C 665.31860859225,163.016536715655 689.592704285533,142.739524215469 710.71608075829,113.718784102038" />
    <path style="fill:none; stroke:#000000;stroke-width:1px;stroke-linecap:butt;stroke-linejoin:miter;stroke-opacity:1" id="pathbez7471" d="M 710.71608075829,113.718784102038 C 712.7743873656,110.763074877358 714.832693972909,107.807365652678 716.891000580219,104.851656427998" />
    <path style="fill:none; stroke:#000000;stroke-width:1px;stroke-linecap:butt;stroke-linejoin:miter;stroke-opacity:1" id="pathbez7706" d="M 774.802194380275,206.55086744101 C 771.523301133363,207.339136024377 768.244407886451,208.127404607745 764.965514639539,208.915673191112" />
    <path style="fill:none; stroke:#000000;stroke-width:1px;stroke-linecap:butt;stroke-linejoin:miter;stroke-opacity:1" id="pathbez7972" d="M 723.714006958671,113.333405128579 C 746.341463617822,142.168028922388 762.312980549219,169.955582106296 771.645879965246,196.687447876443" />
    <path style="fill:none; stroke:#000000;stroke-width:1px;stroke-linecap:butt;stroke-linejoin:miter;stroke-opacity:1" id="pathbez7971" d="M 771.645879965246,196.687447876443 C 772.697984770255,199.975254397965 773.750089575265,203.263060919488 774.802194380275,206.55086744101" />
    <path style="fill:none; stroke:#000000;stroke-width:1px;stroke-linecap:butt;stroke-linejoin:miter;stroke-opacity:1" id="pathbez8205" d="M 677.784439862899,251.930884922225 C 679.623820264382,255.254073658249 681.463200665864,258.577262394273 683.302581067347,261.900451130297" />
    <path style="fill:none; stroke:#000000;stroke-width:1px;stroke-linecap:butt;stroke-linejoin:miter;stroke-opacity:1" id="pathbez8530" d="M 764.965514639539,208.915673191112 C 732.392483684302,217.264506021842 705.985713170654,229.373197323514 685.72847965782,245.233374669314" />
    <path style="fill:none; stroke:#000000;stroke-width:1px;stroke-linecap:butt;stroke-linejoin:miter;stroke-opacity:1" id="pathbez8529" d="M 685.72847965782,245.233374669314 C 683.080466392846,247.465878086951 680.432453127873,249.698381504588 677.784439862899,251.930884922225" />
    <path style="fill:none; stroke:#000000;stroke-width:1px;stroke-linecap:butt;stroke-linejoin:miter;stroke-opacity:1" id="pathbez8797" d="M 665.253303895875,320.781174069228 C 665.830227016341,324.301296650949 666.407150136807,327.821419232669 666.984073257273,331.34154181439" />
    <path style="fill:none; stroke:#000000;stroke-width:1px;stroke-linecap:butt;stroke-linejoin:miter;stroke-opacity:1" id="pathbez9058" d="M 683.302581067347,261.900451130297 C 703.916880437814,301.147830135401 704.61166585056,328.576528731088 674.953694636729,323.3200860385" />
    <path style="fill:none; stroke:#000000;stroke-width:1px;stroke-linecap:butt;stroke-linejoin:miter;stroke-opacity:1" id="pathbez9057" d="M 674.953694636729,323.3200860385 C 671.720231056444,322.473782048742 668.48676747616,321.627478058985 665.253303895875,320.781174069228" />
    <path style="fill:none; stroke:#000000;stroke-width:1px;stroke-linecap:butt;stroke-linejoin:miter;stroke-opacity:1" id="pathbez9335" d="M 634.328132231172,413.845339653558 C 694.02844625608,429.623327180085 714.409236676364,467.542020668121 726.553404763314,505.816331195777" />
    <path style="fill:none; stroke:#000000;stroke-width:1px;stroke-linecap:butt;stroke-linejoin:miter;stroke-opacity:1" id="pathbez9334" d="M 624.570480119245,411.541249383475 C 627.82303082322,412.309279473503 631.075581527196,413.07730956353 634.328132231172,413.845339653558" />
    <path style="fill:none; stroke:#000000;stroke-width:1px;stroke-linecap:butt;stroke-linejoin:miter;stroke-opacity:1" id="pathbez9624" d="M 666.984073257273,331.34154181439 C 668.827330379383,354.933736711849 657.27972981641,379.200755076703 632.357455585556,404.126412891749" />
    <path style="fill:none; stroke:#000000;stroke-width:1px;stroke-linecap:butt;stroke-linejoin:miter;stroke-opacity:1" id="pathbez9623" d="M 632.357455585556,404.126412891749 C 629.761797096785,406.598025055658 627.166138608015,409.069637219566 624.570480119245,411.541249383475" />
    <path style="fill:none; stroke:#000000;stroke-width:1px;stroke-linecap:butt;stroke-linejoin:miter;stroke-opacity:1" id="pathbez9893" d="M 613.615566859714,757.368917825985 C 616.874045631436,758.241131898095 620.132524403159,759.113345970205 623.391003174881,759.985560042315" />
    <path style="fill:none; stroke:#000000;stroke-width:1px;stroke-linecap:butt;stroke-linejoin:miter;stroke-opacity:1" id="pathbez10191" d="M 728.760124624168,639.213751286164 C 715.268278455466,689.018307256577 685.630362580049,749.406703691881 623.669783950516,756.672445889322" />
    <path style="fill:none; stroke:#000000;stroke-width:1px;stroke-linecap:butt;stroke-linejoin:miter;stroke-opacity:1" id="pathbez10190" d="M 623.669783950516,756.672445889322 C 620.318378253582,756.904603201543 616.966972556648,757.136760513764 613.615566859714,757.368917825985" />
    <path style="fill:none; stroke:#000000;stroke-width:1px;stroke-linecap:butt;stroke-linejoin:miter;stroke-opacity:1" id="pathbez10461" d="M 723.238772337909,792.645928047463 C 812.538385606894,762.67582007302 926.519339758715,751.870987490896 1000,770.104960323874" />
    <path style="fill:none; stroke:#000000;stroke-width:1px;stroke-linecap:butt;stroke-linejoin:miter;stroke-opacity:1" id="pathbez10460" d="M 712.209584436401,796.491296455888 C 715.88598040357,795.209506986413 719.56237637074,793.927717516938 723.238772337909,792.645928047463" />
    <path style="fill:none; stroke:#000000;stroke-width:1px;stroke-linecap:butt;stroke-linejoin:miter;stroke-opacity:1" id="pathbez10758" d="M 623.391003174881,759.985560042315 C 647.438389691713,766.842497746537 673.815151265367,777.38173722199 702.54557174617,791.611386910586" />
    <path style="fill:none; stroke:#000000;stroke-width:1px;stroke-linecap:butt;stroke-linejoin:miter;stroke-opacity:1" id="pathbez10757" d="M 702.54557174617,791.611386910586 C 705.76690930958,793.238023425686 708.988246872991,794.864659940787 712.209584436401,796.491296455888" />
    <path style="fill:none; stroke:#000000;stroke-width:1px;stroke-linecap:butt;stroke-linejoin:miter;stroke-opacity:1" id="pathbez11030" d="M 357.003225441853,788.657354193448 C 471.980000182876,847.199253382401 546.798111235871,880.104059223089 587.874418598853,897.165934462757" />
    <path style="fill:none; stroke:#000000;stroke-width:1px;stroke-linecap:butt;stroke-linejoin:miter;stroke-opacity:1" id="pathbez11201" d="M 357.003225441853,788.657354193448 C 242.959147504194,830.659433379448 116.238829417761,804.210704977788 278.890162928842,0" />
    <path style="fill:none; stroke:#000000;stroke-width:1px;stroke-linecap:butt;stroke-linejoin:miter;stroke-opacity:1" id="pathbez11594" d="M 725.407052671753,897.165934462757 C 829.885361896037,146.376465062347 614.837392705597,388.751832680667 518.174075401649,409.98076388493" />
    <path style="fill:none; stroke:#000000;stroke-width:1px;stroke-linecap:butt;stroke-linejoin:miter;stroke-opacity:1" id="pathbez12285" d="M 839.228633034884,897.165934462757 C 548.825952979713,591.057380358768 647.290727049641,471.023640109752 518.174075401649,409.98076388493" />
    <path style="fill:none; stroke:#000000;stroke-width:1px;stroke-linecap:butt;stroke-linejoin:miter;stroke-opacity:1" id="pathbez13161" d="M 447.747563547152,275.401156588013 C 475.469405779456,184.439482156284 982.344584292473,155.457129596344 179.702020652385,897.165934462757" />
    <path style="fill:none; stroke:#000000;stroke-width:1px;stroke-linecap:butt;stroke-linejoin:miter;stroke-opacity:1" id="pathbez15072" d="M 1000,701.180332353503 C 949.694960754018,623.336453416794 896.389108476442,367.441277156923 447.747563547152,275.401156588013" />
    <path style="fill:none; stroke:#000000;stroke-width:1px;stroke-linecap:butt;stroke-linejoin:miter;stroke-opacity:1" id="pathbez16022" d="M 316.320401665223,237.855041017421 C 205.125096813933,193.664968905495 72.1077052587826,81.6909593435388 167.759565661666,897.165934462757" />
    <path style="fill:none; stroke:#000000;stroke-width:1px;stroke-linecap:butt;stroke-linejoin:miter;stroke-opacity:1" id="pathbez16440" d="M 33.986135646578,897.165934462757 C 313.035417486484,582.520709781282 -232.517596683661,291.681126721097 316.320401665223,237.855041017421" />
    <path style="fill:none; stroke:#000000;stroke-width:1px;stroke-linecap:butt;stroke-linejoin:miter;stroke-opacity:1" id="pathbez19016" d="M 457.14195095632,244.11272022055 C 601.682835338627,283.289256104012 704.724293991554,302.029832225827 385.039548837486,897.165934462757" />
    <path style="fill:none; stroke:#000000;stroke-width:1px;stroke-linecap:butt;stroke-linejoin:miter;stroke-opacity:1" id="pathbez20665" d="M 1000,354.896705390016 C 125.317246853439,743.053750766012 334.052956196244,429.213262267342 457.14195095632,244.11272022055" />
    <path style="fill:none; stroke:#000000;stroke-width:1px;stroke-linecap:butt;stroke-linejoin:miter;stroke-opacity:1" id="pathbez22518" d="M 590.145335545743,189.33827497835 C 778.015714650833,206.619595897544 737.906502098576,465.381422354707 0,268.649194715243" />
    <path style="fill:none; stroke:#000000;stroke-width:1px;stroke-linecap:butt;stroke-linejoin:miter;stroke-opacity:1" id="pathbez23818" d="M 380.395604638747,897.165934462757 C 921.848700889116,475.436811969911 810.438760028745,491.984643820033 590.145335545743,189.33827497835" />
    <path style="fill:none; stroke:#000000;stroke-width:1px;stroke-linecap:butt;stroke-linejoin:miter;stroke-opacity:1" id="pathbez33290" d="M 627.707188325283,178.383402070638 C 682.181889449486,264.229073378378 673.945926417793,277.228430550001 1000,760.361236014851" />
    <path style="fill:none; stroke:#000000;stroke-width:1px;stroke-linecap:butt;stroke-linejoin:miter;stroke-opacity:1" id="pathbez35078" d="M 0,751.142961022152 C 455.799029747292,294.135906618959 490.291988100321,230.097497489472 627.707188325283,178.383402070638" />
    <path style="fill:none; stroke:#000000;stroke-width:1px;stroke-linecap:butt;stroke-linejoin:miter;stroke-opacity:1" id="pathbez37209" d="M 716.891000580219,104.851656427998 C 747.12165038064,61.4407233017816 773.02816242649,26.707273279466 793.935704460901,0" />
    <path style="fill:none; stroke:#000000;stroke-width:1px;stroke-linecap:butt;stroke-linejoin:miter;stroke-opacity:1" id="pathbez38525" d="M 398.62441571732,0 C 417.520182313545,51.735331295293 657.903852313117,31.5241318128228 716.891000580219,104.851656427998" />
    <path style="fill:none; stroke:#000000;stroke-width:1px;stroke-linecap:butt;stroke-linejoin:miter;stroke-opacity:1" id="pathbez38833" d="M 774.802194380275,206.55086744101 C 846.248539729075,429.819270986155 983.351250499007,349.20732864706 827.032575162218,897.165934462757" />
    <path style="fill:none; stroke:#000000;stroke-width:1px;stroke-linecap:butt;stroke-linejoin:miter;stroke-opacity:1" id="pathbez39701" d="M 1000,107.164510152654 C 977.882635026183,138.308483636978 914.408151591139,172.988631090718 774.802194380275,206.55086744101" />
    <path style="fill:none; stroke:#000000;stroke-width:1px;stroke-linecap:butt;stroke-linejoin:miter;stroke-opacity:1" id="pathbez39963" d="M 677.784439862899,251.930884922225 C 468.314048772571,428.532479101758 73.7212521738662,570.936715580841 503.756838732899,897.165934462757" />
    <path style="fill:none; stroke:#000000;stroke-width:1px;stroke-linecap:butt;stroke-linejoin:miter;stroke-opacity:1" id="pathbez51611" d="M 500.03824647813,0 C 548.493884596502,42.8575615795657 605.920243194458,122.094615763603 677.784439862899,251.930884922225" />
    <path style="fill:none; stroke:#000000;stroke-width:1px;stroke-linecap:butt;stroke-linejoin:miter;stroke-opacity:1" id="pathbez52808" d="M 665.253303895875,320.781174069228 C 438.875173397236,261.530556186001 388.175668049469,257.930309203103 38.8782660194657,0" />
    <path style="fill:none; stroke:#000000;stroke-width:1px;stroke-linecap:butt;stroke-linejoin:miter;stroke-opacity:1" id="pathbez54489" d="M 603.873869770345,0 C 619.475004069002,56.0043502746389 638.122503671431,155.241366177455 665.253303895875,320.781174069228" />
    <path style="fill:none; stroke:#000000;stroke-width:1px;stroke-linecap:butt;stroke-linejoin:miter;stroke-opacity:1" id="pathbez60169" d="M 624.570480119245,411.541249383475 C 431.286228563984,595.588461026584 934.787538803549,611.188842337588 1000,3.01029617105019" />
    <path style="fill:none; stroke:#000000;stroke-width:1px;stroke-linecap:butt;stroke-linejoin:miter;stroke-opacity:1" id="pathbez77423" d="M 83.3017301213644,0 C 396.482300411502,319.224140147249 371.581917891587,351.802648541317 624.570480119245,411.541249383475" />
    <path style="fill:none; stroke:#000000;stroke-width:1px;stroke-linecap:butt;stroke-linejoin:miter;stroke-opacity:1" id="pathbez80194" d="M 613.615566859714,757.368917825985 C 248.669343920395,782.649335025321 420.317336215545,862.069460376425 442.365281300996,897.165934462757" />
    <path style="fill:none; stroke:#000000;stroke-width:1px;stroke-linecap:butt;stroke-linejoin:miter;stroke-opacity:1" id="pathbez81946" d="M 152.137038877686,0 C 353.009236706749,431.538602166985 142.504776667703,631.264226184519 613.615566859714,757.368917825985" />
    <path style="fill:none; stroke:#000000;stroke-width:1px;stroke-linecap:butt;stroke-linejoin:miter;stroke-opacity:1" id="pathbez84250" d="M 712.209584436401,796.491296455888 C 819.04023170982,850.436165121819 865.213685817627,880.807452121746 871.56270505279,897.165934462757" />
    <path style="fill:none; stroke:#000000;stroke-width:1px;stroke-linecap:butt;stroke-linejoin:miter;stroke-opacity:1" id="pathbez85142" d="M 1000,384.934987201844 C 48.1165308985702,894.119953144768 142.204595143069,995.22570900256 712.209584436401,796.491296455888" />
  </g>
</svg>